Coordinates
version=1
nRows=54
nColumns=12
inDegrees=yes

Units are S.I. units (second, meters, Newtons, ...)
Angles are in degrees

endheader
time	SC_y	SC_z	SC_x	AC_y	AC_z	AC_x	GH_y	GH_z	GH_yy	EL_x	PS_y
       0.0              -12.94          34.29          80.97          56.68         -12.64         -8.538         -56.12          87.68         -10.83          50.13          150.3
   0.03411              -12.94          34.29          80.96          56.68         -12.64         -8.536         -56.11          87.68         -10.83          50.13          150.3
   0.06821              -12.95          34.28          80.95          56.68         -12.64         -8.534         -56.11          87.67         -10.84          50.13          150.3
    0.1023              -12.95          34.28          80.94          56.68         -12.64         -8.533          -56.1          87.67         -10.84          50.13          150.3
    0.1364              -12.95          34.28          80.93          56.68         -12.64         -8.531          -56.1          87.66         -10.85          50.13          150.3
    0.1705              -12.96          34.27          80.91          56.68         -12.64         -8.529         -56.09          87.65         -10.85          50.12          150.3
    0.2046              -12.96          34.27           80.9          56.69         -12.64         -8.527         -56.09          87.64         -10.86          50.12          150.3
    0.2387              -12.97          34.26          80.88          56.69         -12.63         -8.524         -56.08          87.64         -10.87          50.12          150.3
    0.2728              -12.97          34.26          80.87          56.69         -12.63         -8.522         -56.08          87.63         -10.87          50.12          150.3
     0.307              -12.97          34.25          80.85          56.69         -12.63         -8.519         -56.07          87.62         -10.88          50.12          150.2
    0.3411              -12.98          34.25          80.83           56.7         -12.63         -8.516         -56.06          87.61         -10.89          50.11          150.2
    0.3752              -12.99          34.24          80.81           56.7         -12.63         -8.513         -56.06          87.59          -10.9          50.11          150.2
    0.4093              -12.99          34.24          80.79           56.7         -12.63          -8.51         -56.05          87.58         -10.91          50.11          150.2
    0.4434               -13.0          34.23          80.76          56.71         -12.63         -8.507         -56.04          87.57         -10.92          50.11          150.2
    0.4775               -13.0          34.22          80.74          56.71         -12.62         -8.503         -56.03          87.56         -10.93           50.1          150.2
    0.5116              -13.01          34.22          80.71          56.72         -12.62         -8.499         -56.02          87.54         -10.94           50.1          150.2
    0.5457              -13.02          34.21          80.68          56.72         -12.62         -8.494         -56.01          87.52         -10.96           50.1          150.2
    0.5798              -13.03           34.2          80.65          56.73         -12.62         -8.489          -56.0           87.5         -10.97          50.09          150.2
    0.6139              -13.04          34.19          80.61          56.73         -12.61         -8.484         -55.98          87.49         -10.99          50.09          150.2
     0.648              -13.05          34.18          80.57          56.74         -12.61         -8.478         -55.97          87.46          -11.0          50.08          150.1
    0.6821              -13.06          34.16          80.53          56.74         -12.61         -8.472         -55.95          87.44         -11.02          50.08          150.1
    0.7162              -13.07          34.15          80.48          56.75          -12.6         -8.464         -55.94          87.41         -11.04          50.07          150.1
    0.7503              -13.09          34.14          80.43          56.76          -12.6         -8.457         -55.92          87.38         -11.07          50.06          150.1
    0.7844               -13.1          34.12          80.37          56.77         -12.59         -8.448          -55.9          87.35         -11.09          50.06          150.1
    0.8185              -13.12           34.1           80.3          56.78         -12.59         -8.438         -55.87          87.32         -11.12          50.05          150.0
    0.8527              -13.14          34.08          80.23          56.79         -12.58         -8.428         -55.84          87.28         -11.15          50.04          150.0
    0.8868              -13.16          34.06          80.15           56.8         -12.57         -8.416         -55.82          87.23         -11.19          50.03          150.0
    0.9209              -13.19          34.03          80.06          56.82         -12.57         -8.402         -55.78          87.18         -11.23          50.02          149.9
     0.955              -13.22           34.0          79.96          56.83         -12.56         -8.387         -55.74          87.12         -11.27           50.0          149.9
    0.9891              -13.25          33.97          79.84          56.85         -12.55         -8.369          -55.7          87.06         -11.33          49.99          149.8
     1.023              -13.28          33.93          79.71          56.87         -12.54         -8.349         -55.65          86.99         -11.38          49.97          149.8
     1.057              -13.32          33.89          79.55           56.9         -12.52         -8.327          -55.6           86.9         -11.45          49.95          149.7
     1.091              -13.37          33.84          79.38          56.92         -12.51           -8.3         -55.53           86.8         -11.53          49.93          149.6
     1.126              -13.43          33.78          79.17          56.96         -12.49          -8.27         -55.46          86.69         -11.62           49.9          149.6
      1.16              -13.49          33.72          78.93          56.99         -12.47         -8.234         -55.37          86.56         -11.73          49.87          149.5
     1.194              -13.57          33.64          78.65          57.04         -12.45         -8.192         -55.26           86.4         -11.85          49.83          149.3
     1.228              -13.66          33.54          78.31          57.09         -12.42         -8.142         -55.14          86.22          -12.0          49.79          149.2
     1.262              -13.77          33.43          77.91          57.15         -12.39         -8.082         -54.99          85.99         -12.18          49.74          149.0
     1.296               -13.9          33.29          77.42          57.23         -12.35         -8.009         -54.82          85.72          -12.4          49.68          148.8
      1.33              -14.06          33.12          76.83          57.32          -12.3          -7.92          -54.6          85.39         -12.66           49.6          148.6
     1.364              -14.26          32.92          76.09          57.44         -12.24         -7.811         -54.33          84.99         -12.98          49.51          148.3
     1.398              -14.51          32.66          75.17          57.58         -12.16         -7.674         -53.99          84.48         -13.39          49.39          147.9
     1.432              -14.82          32.33          74.02          57.76         -12.06         -7.502         -53.57          83.84          -13.9          49.24          147.5
     1.467              -15.22          31.92          72.55          57.99         -11.94         -7.283         -53.03          83.03         -14.55          49.05          146.9
     1.501              -15.73          31.39          70.67          58.28         -11.79         -7.003         -52.34          81.99         -15.38          48.81          146.1
     1.535              -16.38          30.71          68.25          58.66         -11.58         -6.644         -51.46          80.66         -16.45           48.5          145.1
     1.569              -17.21          29.85          65.17          59.14         -11.33         -6.185         -50.33          78.96         -17.81          48.11          143.8
     1.603              -18.26          28.76           61.3          59.74         -11.01         -5.608         -48.91          76.82         -19.53          47.61          142.2
     1.637              -19.54          27.43          56.57          60.48         -10.61         -4.905         -47.18          74.21         -21.61           47.0          140.3
     1.671              -21.02          25.89           51.1          61.33         -10.16          -4.09         -45.17          71.19         -24.04           46.3          138.1
     1.705              -22.62          24.23          45.17          62.26         -9.665         -3.207          -43.0          67.92         -26.66          45.54          135.6
     1.739              -24.22          22.56          39.24          63.18         -9.172         -2.325         -40.83          64.64         -29.28          44.78          133.2
     1.774               -25.7          21.02          33.77          64.04         -8.717         -1.509         -38.83          61.62          -31.7          44.08          131.0
     1.808              -26.98          19.69          29.04          64.77         -8.324        -0.8063          -37.1          59.01         -33.79          43.47          129.0
